<?xml version="1.0" encoding="UTF-8" standalone="no"?>
<!DOCTYPE svg PUBLIC "-//W3C//DTD SVG 1.1//EN"
 "http://www.w3.org/Graphics/SVG/1.1/DTD/svg11.dtd">
<!-- Generated by graphviz version 2.40.1 (20161225.0304)
 -->
<!-- Title: dependencies Pages: 1 -->
<svg width="504pt" height="211pt"
 viewBox="0.00 0.00 504.00 211.00" xmlns="http://www.w3.org/2000/svg" xmlns:xlink="http://www.w3.org/1999/xlink">
<g id="graph0" class="graph" transform="scale(1 1) rotate(0) translate(4 207)">
<title>dependencies</title>
<polygon fill="#ffffff" stroke="transparent" points="-4,4 -4,-207 500,-207 500,4 -4,4"/>
<text text-anchor="start" x="227.0091" y="-42.4" font-family="sans-serif" font-weight="bold" font-size="14.00" fill="#000000">Legend</text>
<polygon fill="#ffffb3" stroke="transparent" points="14,-10 14,-30 34,-30 34,-10 14,-10"/>
<text text-anchor="start" x="37.629" y="-15.4" font-family="sans-serif" font-size="14.00" fill="#000000"> &#160;Declarations</text>
<polygon fill="#8dd3c7" stroke="transparent" points="127,-10 127,-30 147,-30 147,-10 127,-10"/>
<text text-anchor="start" x="150.7251" y="-15.4" font-family="sans-serif" font-size="14.00" fill="#000000"> &#160;Module</text>
<polygon fill="#80b1d3" stroke="transparent" points="213,-10 213,-30 233,-30 233,-10 213,-10"/>
<text text-anchor="start" x="236.7812" y="-15.4" font-family="sans-serif" font-size="14.00" fill="#000000"> &#160;Bootstrap</text>
<polygon fill="#fdb462" stroke="transparent" points="310,-10 310,-30 330,-30 330,-10 310,-10"/>
<text text-anchor="start" x="333.6732" y="-15.4" font-family="sans-serif" font-size="14.00" fill="#000000"> &#160;Providers</text>
<polygon fill="#fb8072" stroke="transparent" points="406,-10 406,-30 426,-30 426,-10 406,-10"/>
<text text-anchor="start" x="429.7258" y="-15.4" font-family="sans-serif" font-size="14.00" fill="#000000"> &#160;Exports</text>
<g id="clust1" class="cluster">
<title>cluster_ProjectDetailPageModule</title>
<polygon fill="none" stroke="#000000" stroke-dasharray="1,5" points="112,-70 112,-195 384,-195 384,-70 112,-70"/>
</g>
<g id="clust2" class="cluster">
<title>cluster_ProjectDetailPageModule_declarations</title>
<polygon fill="none" stroke="#000000" points="242,-78 242,-130 376,-130 376,-78 242,-78"/>
</g>
<g id="clust4" class="cluster">
<title>cluster_ProjectDetailPageModule_imports</title>
<polygon fill="none" stroke="#000000" points="120,-78 120,-130 234,-130 234,-78 120,-78"/>
</g>
<!-- ProjectDetailPage -->
<g id="node1" class="node">
<title>ProjectDetailPage</title>
<polygon fill="#ffffb3" stroke="#000000" points="367.573,-122 250.427,-122 250.427,-86 367.573,-86 367.573,-122"/>
<text text-anchor="middle" x="309" y="-99.8" font-family="Times,serif" font-size="14.00" fill="#000000">ProjectDetailPage</text>
</g>
<!-- ProjectDetailPageModule -->
<g id="node2" class="node">
<title>ProjectDetailPageModule</title>
<polygon fill="#8dd3c7" stroke="#000000" points="328.1232,-187 325.1232,-191 304.1232,-191 301.1232,-187 167.8768,-187 167.8768,-151 328.1232,-151 328.1232,-187"/>
<text text-anchor="middle" x="248" y="-164.8" font-family="Times,serif" font-size="14.00" fill="#000000">ProjectDetailPageModule</text>
</g>
<!-- ProjectDetailPage&#45;&gt;ProjectDetailPageModule -->
<g id="edge1" class="edge">
<title>ProjectDetailPage&#45;&gt;ProjectDetailPageModule</title>
<path fill="none" stroke="#000000" d="M289.3875,-122.1061C289.3875,-122.1061 289.3875,-140.991 289.3875,-140.991"/>
<polygon fill="#000000" stroke="#000000" points="285.8875,-140.9909 289.3875,-150.991 292.8875,-140.991 285.8875,-140.9909"/>
</g>
<!-- SharedModule -->
<g id="node3" class="node">
<title>SharedModule</title>
<polygon fill="#8dd3c7" stroke="#000000" points="226.4231,-122 223.4231,-126 202.4231,-126 199.4231,-122 127.5769,-122 127.5769,-86 226.4231,-86 226.4231,-122"/>
<text text-anchor="middle" x="177" y="-99.8" font-family="Times,serif" font-size="14.00" fill="#000000">SharedModule</text>
</g>
<!-- SharedModule&#45;&gt;ProjectDetailPageModule -->
<g id="edge2" class="edge">
<title>SharedModule&#45;&gt;ProjectDetailPageModule</title>
<path fill="none" stroke="#000000" d="M196.9499,-122.1061C196.9499,-122.1061 196.9499,-140.991 196.9499,-140.991"/>
<polygon fill="#000000" stroke="#000000" points="193.4499,-140.9909 196.9499,-150.991 200.4499,-140.991 193.4499,-140.9909"/>
</g>
</g>
</svg>
